<?xml version="1.0" encoding="utf-8" standalone="no"?>
<!DOCTYPE svg PUBLIC "-//W3C//DTD SVG 1.1//EN"
  "http://www.w3.org/Graphics/SVG/1.1/DTD/svg11.dtd">
<svg xmlns:xlink="http://www.w3.org/1999/xlink" width="576pt" height="432pt" viewBox="0 0 576 432" xmlns="http://www.w3.org/2000/svg" version="1.1">
 <metadata>
  <rdf:RDF xmlns:dc="http://purl.org/dc/elements/1.1/" xmlns:cc="http://creativecommons.org/ns#" xmlns:rdf="http://www.w3.org/1999/02/22-rdf-syntax-ns#">
   <cc:Work>
    <dc:type rdf:resource="http://purl.org/dc/dcmitype/StillImage"/>
    <dc:date>2024-04-22T19:04:51.973971</dc:date>
    <dc:format>image/svg+xml</dc:format>
    <dc:creator>
     <cc:Agent>
      <dc:title>Matplotlib v3.7.2, https://matplotlib.org/</dc:title>
     </cc:Agent>
    </dc:creator>
   </cc:Work>
  </rdf:RDF>
 </metadata>
 <defs>
  <style type="text/css">*{stroke-linejoin: round; stroke-linecap: butt}</style>
 </defs>
 <g id="figure_1">
  <g id="patch_1">
   <path d="M 0 432 
L 576 432 
L 576 0 
L 0 0 
z
" style="fill: #ffffff"/>
  </g>
  <g id="axes_1">
   <g id="patch_2">
    <path d="M 467.248298 264.405551 
Q 371.421209 263.745842 316.346022 339.31699 
" clip-path="url(#pd13a653558)" style="fill: none; stroke: #7f7f7f; stroke-width: 1.514635; stroke-linecap: round"/>
    <path d="M 322.304311 336.234979 
L 316.346022 339.31699 
L 317.455387 332.701152 
z
" clip-path="url(#pd13a653558)" style="fill: #7f7f7f; stroke: #7f7f7f; stroke-width: 1.514635; stroke-linecap: round"/>
   </g>
   <g id="patch_3">
    <path d="M 474.076003 252.380588 
Q 388.000193 125.250745 239.559018 127.947703 
" clip-path="url(#pd13a653558)" style="fill: none; stroke: #7f7f7f; stroke-width: 3.918312; stroke-linecap: round"/>
    <path d="M 245.612524 130.838215 
L 239.559018 127.947703 
L 245.503531 124.839205 
z
" clip-path="url(#pd13a653558)" style="fill: #7f7f7f; stroke: #7f7f7f; stroke-width: 3.918312; stroke-linecap: round"/>
   </g>
   <g id="patch_4">
    <path d="M 474.78248 251.953844 
Q 375.78899 85.391836 185.234354 80.84427 
" clip-path="url(#pd13a653558)" style="fill: none; stroke: #7f7f7f; stroke-width: 2.188597; stroke-linecap: round"/>
    <path d="M 191.161072 83.986565 
L 185.234354 80.84427 
L 191.304221 77.988272 
z
" clip-path="url(#pd13a653558)" style="fill: #7f7f7f; stroke: #7f7f7f; stroke-width: 2.188597; stroke-linecap: round"/>
   </g>
   <g id="patch_5">
    <path d="M 225.193558 260.414248 
Q 165.557109 244.934797 117.144689 280.480385 
" clip-path="url(#pd13a653558)" style="fill: none; stroke: #7f7f7f; stroke-width: 0.892481; stroke-linecap: round"/>
    <path d="M 123.756554 279.347587 
L 117.144689 280.480385 
L 120.20557 274.511214 
z
" clip-path="url(#pd13a653558)" style="fill: #7f7f7f; stroke: #7f7f7f; stroke-width: 0.892481; stroke-linecap: round"/>
   </g>
   <g id="patch_6">
    <path d="M 231.831786 251.951251 
Q 224.571156 242.903938 214.965083 238.870974 
" clip-path="url(#pd13a653558)" style="fill: none; stroke: #7f7f7f; stroke-width: 0.892481; stroke-linecap: round"/>
    <path d="M 219.335992 243.959702 
L 214.965083 238.870974 
L 221.658611 238.427483 
z
" clip-path="url(#pd13a653558)" style="fill: #7f7f7f; stroke: #7f7f7f; stroke-width: 0.892481; stroke-linecap: round"/>
   </g>
   <g id="patch_7">
    <path d="M 251.8872 273.320493 
Q 276.260496 287.287818 302.382986 281.717897 
" clip-path="url(#pd13a653558)" style="fill: none; stroke: #7f7f7f; stroke-width: 0.892481; stroke-linecap: round"/>
    <path d="M 295.88929 280.035065 
L 302.382986 281.717897 
L 297.140503 285.903154 
z
" clip-path="url(#pd13a653558)" style="fill: #7f7f7f; stroke: #7f7f7f; stroke-width: 0.892481; stroke-linecap: round"/>
   </g>
   <g id="patch_8">
    <path d="M 306.032754 340.633426 
Q 310.815898 180.914231 182.486917 92.402438 
" clip-path="url(#pd13a653558)" style="fill: none; stroke: #7f7f7f; stroke-width: 2.87216; stroke-linecap: round"/>
    <path d="M 185.722714 98.278629 
L 182.486917 92.402438 
L 189.129348 93.339515 
z
" clip-path="url(#pd13a653558)" style="fill: #7f7f7f; stroke: #7f7f7f; stroke-width: 2.87216; stroke-linecap: round"/>
   </g>
   <g id="patch_9">
    <path d="M 225.354257 141.374921 
Q 311.430067 268.504764 461.808867 265.772602 
" clip-path="url(#pd13a653558)" style="fill: none; stroke: #7f7f7f; stroke-width: 2.184963; stroke-linecap: round"/>
    <path d="M 455.755361 262.882091 
L 461.808867 265.772602 
L 455.864354 268.881101 
z
" clip-path="url(#pd13a653558)" style="fill: #7f7f7f; stroke: #7f7f7f; stroke-width: 2.184963; stroke-linecap: round"/>
   </g>
   <g id="patch_10">
    <path d="M 211.689514 114.838515 
Q 201.675367 95.213658 183.140265 86.739213 
" clip-path="url(#pd13a653558)" style="fill: none; stroke: #7f7f7f; stroke-width: 1.184963; stroke-linecap: round"/>
    <path d="M 187.34954 91.962431 
L 183.140265 86.739213 
L 189.844404 86.505723 
z
" clip-path="url(#pd13a653558)" style="fill: #7f7f7f; stroke: #7f7f7f; stroke-width: 1.184963; stroke-linecap: round"/>
   </g>
   <g id="patch_11">
    <path d="M 383.605846 301.748289 
Q 340.612699 306.233627 315.067708 340.364873 
" clip-path="url(#pd13a653558)" style="fill: none; stroke: #7f7f7f; stroke-width: 0.1; stroke-linecap: round"/>
    <path d="M 321.064696 337.358858 
L 315.067708 340.364873 
L 316.261088 333.763673 
z
" clip-path="url(#pd13a653558)" style="fill: #7f7f7f; stroke: #7f7f7f; stroke-width: 0.1; stroke-linecap: round"/>
   </g>
   <g id="patch_12">
    <path d="M 444.912424 247.225866 
Q 417.531825 258.067792 404.8867 284.100628 
" clip-path="url(#pd13a653558)" style="fill: none; stroke: #7f7f7f; stroke-width: 0.1; stroke-linecap: round"/>
    <path d="M 410.206725 280.014391 
L 404.8867 284.100628 
L 404.809725 277.392866 
z
" clip-path="url(#pd13a653558)" style="fill: #7f7f7f; stroke: #7f7f7f; stroke-width: 0.1; stroke-linecap: round"/>
   </g>
   <g id="patch_13">
    <path d="M 112.725738 303.409104 
Q 186.052965 376.825072 286.091475 359.560438 
" clip-path="url(#pd13a653558)" style="fill: none; stroke: #7f7f7f; stroke-width: 1.439572; stroke-linecap: round"/>
    <path d="M 279.668681 357.624535 
L 286.091475 359.560438 
L 280.689076 363.537131 
z
" clip-path="url(#pd13a653558)" style="fill: #7f7f7f; stroke: #7f7f7f; stroke-width: 1.439572; stroke-linecap: round"/>
   </g>
   <g id="patch_14">
    <path d="M 113.195879 282.053938 
Q 189.026301 204.306271 169.213779 100.661022 
" clip-path="url(#pd13a653558)" style="fill: none; stroke: #7f7f7f; stroke-width: 2.182286; stroke-linecap: round"/>
    <path d="M 167.393677 107.117587 
L 169.213779 100.661022 
L 173.286969 105.991042 
z
" clip-path="url(#pd13a653558)" style="fill: #7f7f7f; stroke: #7f7f7f; stroke-width: 2.182286; stroke-linecap: round"/>
   </g>
   <g id="patch_15">
    <path d="M 179.198935 187.298665 
Q 204.230018 173.213485 213.175974 146.448455 
" clip-path="url(#pd13a653558)" style="fill: none; stroke: #7f7f7f; stroke-width: 0.1; stroke-linecap: round"/>
    <path d="M 208.428688 151.187998 
L 213.175974 146.448455 
L 214.119237 153.09001 
z
" clip-path="url(#pd13a653558)" style="fill: #7f7f7f; stroke: #7f7f7f; stroke-width: 0.1; stroke-linecap: round"/>
   </g>
   <g id="patch_16">
    <path d="M 311.379314 287.917031 
Q 296.425229 311.231566 300.399231 336.379987 
" clip-path="url(#pd13a653558)" style="fill: none; stroke: #7f7f7f; stroke-width: 1.660815; stroke-linecap: round"/>
    <path d="M 302.425951 329.98527 
L 300.399231 336.379987 
L 296.499489 330.921781 
z
" clip-path="url(#pd13a653558)" style="fill: #7f7f7f; stroke: #7f7f7f; stroke-width: 1.660815; stroke-linecap: round"/>
   </g>
   <g id="patch_17">
    <path d="M 318.930766 261.081435 
Q 307.244613 177.086285 236.810984 138.645695 
" clip-path="url(#pd13a653558)" style="fill: none; stroke: #7f7f7f; stroke-width: 3.538258; stroke-linecap: round"/>
    <path d="M 240.64046 144.153427 
L 236.810984 138.645695 
L 243.514855 138.886753 
z
" clip-path="url(#pd13a653558)" style="fill: #7f7f7f; stroke: #7f7f7f; stroke-width: 3.538258; stroke-linecap: round"/>
   </g>
   <g id="patch_18">
    <path d="M 318.161065 261.183819 
Q 295.70138 137.744537 183.466744 88.352363 
" clip-path="url(#pd13a653558)" style="fill: none; stroke: #7f7f7f; stroke-width: 1.953296; stroke-linecap: round"/>
    <path d="M 187.750074 93.515025 
L 183.466744 88.352363 
L 190.166872 88.023296 
z
" clip-path="url(#pd13a653558)" style="fill: #7f7f7f; stroke: #7f7f7f; stroke-width: 1.953296; stroke-linecap: round"/>
   </g>
   <g id="patch_19">
    <path d="M 471.25848 220.216565 
Q 468.067088 235.190392 473.263212 248.866114 
" clip-path="url(#pd13a653558)" style="fill: none; stroke: #7f7f7f; stroke-width: 0.392481; stroke-linecap: round"/>
    <path d="M 473.936534 242.191787 
L 473.263212 248.866114 
L 468.327744 244.322861 
z
" clip-path="url(#pd13a653558)" style="fill: #7f7f7f; stroke: #7f7f7f; stroke-width: 0.392481; stroke-linecap: round"/>
   </g>
   <g id="patch_20">
    <path d="M 462.625867 199.450531 
Q 380.879172 162.854333 304.504677 206.470855 
" clip-path="url(#pd13a653558)" style="fill: none; stroke: #7f7f7f; stroke-width: 0.892481; stroke-linecap: round"/>
    <path d="M 311.202648 206.100473 
L 304.504677 206.470855 
L 308.227154 200.890248 
z
" clip-path="url(#pd13a653558)" style="fill: #7f7f7f; stroke: #7f7f7f; stroke-width: 0.892481; stroke-linecap: round"/>
   </g>
   <g id="patch_21">
    <path d="M 174.046336 92.509929 
Q 284.705782 228.638922 453.645494 209.015665 
" clip-path="url(#pd13a653558)" style="fill: none; stroke: #7f7f7f; stroke-width: 4.169776; stroke-linecap: round"/>
    <path d="M 447.339426 206.727978 
L 453.645494 209.015665 
L 448.031704 212.687907 
z
" clip-path="url(#pd13a653558)" style="fill: #7f7f7f; stroke: #7f7f7f; stroke-width: 4.169776; stroke-linecap: round"/>
   </g>
   <g id="patch_22">
    <path d="M 172.559111 93.538485 
Q 266.199294 242.264157 436.590277 243.094633 
" clip-path="url(#pd13a653558)" style="fill: none; stroke: #7f7f7f; stroke-width: 4.169776; stroke-linecap: round"/>
    <path d="M 430.60497 240.065425 
L 436.590277 243.094633 
L 430.575727 246.065354 
z
" clip-path="url(#pd13a653558)" style="fill: #7f7f7f; stroke: #7f7f7f; stroke-width: 4.169776; stroke-linecap: round"/>
   </g>
   <g id="patch_23">
    <path d="M 157.862474 94.012939 
Q 138.961764 135.955074 155.355533 173.368284 
" clip-path="url(#pd13a653558)" style="fill: none; stroke: #7f7f7f; stroke-width: 4.169776; stroke-linecap: round"/>
    <path d="M 155.695262 166.668688 
L 155.355533 173.368284 
L 150.199694 169.076743 
z
" clip-path="url(#pd13a653558)" style="fill: #7f7f7f; stroke: #7f7f7f; stroke-width: 4.169776; stroke-linecap: round"/>
   </g>
   <g id="patch_24">
    <path d="M 162.916711 95.586272 
Q 153.85934 190.927693 222.022141 250.433915 
" clip-path="url(#pd13a653558)" style="fill: none; stroke: #7f7f7f; stroke-width: 4.169776; stroke-linecap: round"/>
    <path d="M 219.475161 244.228039 
L 222.022141 250.433915 
L 215.529253 248.747973 
z
" clip-path="url(#pd13a653558)" style="fill: #7f7f7f; stroke: #7f7f7f; stroke-width: 4.169776; stroke-linecap: round"/>
   </g>
   <g id="patch_25">
    <path d="M 273.484448 214.657885 
Q 176.877908 205.652656 114.820403 277.209328 
" clip-path="url(#pd13a653558)" style="fill: none; stroke: #7f7f7f; stroke-width: 1.503677; stroke-linecap: round"/>
    <path d="M 121.017909 274.642048 
L 114.820403 277.209328 
L 116.485083 270.710956 
z
" clip-path="url(#pd13a653558)" style="fill: #7f7f7f; stroke: #7f7f7f; stroke-width: 1.503677; stroke-linecap: round"/>
   </g>
   <g id="patch_26">
    <path d="M 289.085171 231.485135 
Q 292.068387 251.299027 304.953544 263.942603 
" clip-path="url(#pd13a653558)" style="fill: none; stroke: #7f7f7f; stroke-width: 1.503677; stroke-linecap: round"/>
    <path d="M 302.772099 257.599001 
L 304.953544 263.942603 
L 298.569794 261.881598 
z
" clip-path="url(#pd13a653558)" style="fill: #7f7f7f; stroke: #7f7f7f; stroke-width: 1.503677; stroke-linecap: round"/>
   </g>
   <g id="patch_27">
    <path d="M 181.527537 235.469795 
Q 137.229394 241.03711 111.812115 277.009364 
" clip-path="url(#pd13a653558)" style="fill: none; stroke: #7f7f7f; stroke-width: 0.1; stroke-linecap: round"/>
    <path d="M 117.724594 273.840359 
L 111.812115 277.009364 
L 112.824398 270.377978 
z
" clip-path="url(#pd13a653558)" style="fill: #7f7f7f; stroke: #7f7f7f; stroke-width: 0.1; stroke-linecap: round"/>
   </g>
   <g id="PathCollection_1">
    <defs>
     <path id="m733a7b7177" d="M 0 14.142136 
C 3.750538 14.142136 7.347969 12.652031 10 10 
C 12.652031 7.347969 14.142136 3.750538 14.142136 0 
C 14.142136 -3.750538 12.652031 -7.347969 10 -10 
C 7.347969 -12.652031 3.750538 -14.142136 0 -14.142136 
C -3.750538 -14.142136 -7.347969 -12.652031 -10 -10 
C -12.652031 -7.347969 -14.142136 -3.750538 -14.142136 0 
C -14.142136 3.750538 -12.652031 7.347969 -10 10 
C -7.347969 12.652031 -3.750538 14.142136 0 14.142136 
z
" style="stroke: #1f77b4; stroke-opacity: 0.4"/>
    </defs>
    <g clip-path="url(#pd13a653558)">
     <use xlink:href="#m733a7b7177" x="482.236792" y="264.966926" style="fill: #1f77b4; fill-opacity: 0.4; stroke: #1f77b4; stroke-opacity: 0.4"/>
     <use xlink:href="#m733a7b7177" x="239.525594" y="264.826092" style="fill: #1f77b4; fill-opacity: 0.4; stroke: #1f77b4; stroke-opacity: 0.4"/>
     <use xlink:href="#m733a7b7177" x="305.295936" y="355.614545" style="fill: #1f77b4; fill-opacity: 0.4; stroke: #1f77b4; stroke-opacity: 0.4"/>
     <use xlink:href="#m733a7b7177" x="217.193468" y="128.788583" style="fill: #1f77b4; fill-opacity: 0.4; stroke: #1f77b4; stroke-opacity: 0.4"/>
     <use xlink:href="#m733a7b7177" x="398.591021" y="301.08102" style="fill: #1f77b4; fill-opacity: 0.4; stroke: #1f77b4; stroke-opacity: 0.4"/>
     <use xlink:href="#m733a7b7177" x="459.24897" y="242.822385" style="fill: #1f77b4; fill-opacity: 0.4; stroke: #1f77b4; stroke-opacity: 0.4"/>
     <use xlink:href="#m733a7b7177" x="102.434006" y="292.50099" style="fill: #1f77b4; fill-opacity: 0.4; stroke: #1f77b4; stroke-opacity: 0.4"/>
     <use xlink:href="#m733a7b7177" x="165.577173" y="193.580736" style="fill: #1f77b4; fill-opacity: 0.4; stroke: #1f77b4; stroke-opacity: 0.4"/>
     <use xlink:href="#m733a7b7177" x="320.491301" y="276.000281" style="fill: #1f77b4; fill-opacity: 0.4; stroke: #1f77b4; stroke-opacity: 0.4"/>
     <use xlink:href="#m733a7b7177" x="476.110479" y="206.020177" style="fill: #1f77b4; fill-opacity: 0.4; stroke: #1f77b4; stroke-opacity: 0.4"/>
     <use xlink:href="#m733a7b7177" x="164.790824" y="80.705455" style="fill: #1f77b4; fill-opacity: 0.4; stroke: #1f77b4; stroke-opacity: 0.4"/>
     <use xlink:href="#m733a7b7177" x="288.373376" y="216.501114" style="fill: #1f77b4; fill-opacity: 0.4; stroke: #1f77b4; stroke-opacity: 0.4"/>
     <use xlink:href="#m733a7b7177" x="196.495137" y="234.464774" style="fill: #1f77b4; fill-opacity: 0.4; stroke: #1f77b4; stroke-opacity: 0.4"/>
    </g>
   </g>
   <g id="text_1">
    <g clip-path="url(#pd13a653558)">
     <!-- , -->
     <g transform="translate(478.624605 269.557864) scale(0.12 -0.12)">
      <defs>
       <path id="DejaVuSansMono-2c" d="M 1569 947 
L 2356 947 
L 2356 300 
L 1741 -897 
L 1259 -897 
L 1569 300 
L 1569 947 
z
" transform="scale(0.015625)"/>
      </defs>
      <use xlink:href="#DejaVuSansMono-2c"/>
     </g>
    </g>
   </g>
   <g id="text_2">
    <g clip-path="url(#pd13a653558)">
     <!-- last -->
     <g transform="translate(225.076844 269.417029) scale(0.12 -0.12)">
      <defs>
       <path id="DejaVuSansMono-6c" d="M 1997 1269 
Q 1997 881 2139 684 
Q 2281 488 2559 488 
L 3231 488 
L 3231 0 
L 2503 0 
Q 1988 0 1705 331 
Q 1422 663 1422 1269 
L 1422 4447 
L 500 4447 
L 500 4897 
L 1997 4897 
L 1997 1269 
z
" transform="scale(0.015625)"/>
       <path id="DejaVuSansMono-61" d="M 2194 1759 
L 2003 1759 
Q 1500 1759 1245 1582 
Q 991 1406 991 1056 
Q 991 741 1181 566 
Q 1372 391 1709 391 
Q 2184 391 2456 720 
Q 2728 1050 2731 1631 
L 2731 1759 
L 2194 1759 
z
M 3309 1997 
L 3309 0 
L 2731 0 
L 2731 519 
Q 2547 206 2267 57 
Q 1988 -91 1588 -91 
Q 1053 -91 734 211 
Q 416 513 416 1019 
Q 416 1603 808 1906 
Q 1200 2209 1959 2209 
L 2731 2209 
L 2731 2300 
Q 2728 2719 2518 2908 
Q 2309 3097 1850 3097 
Q 1556 3097 1256 3012 
Q 956 2928 672 2766 
L 672 3341 
Q 991 3463 1283 3523 
Q 1575 3584 1850 3584 
Q 2284 3584 2592 3456 
Q 2900 3328 3091 3072 
Q 3209 2916 3259 2686 
Q 3309 2456 3309 1997 
z
" transform="scale(0.015625)"/>
       <path id="DejaVuSansMono-73" d="M 3041 3378 
L 3041 2816 
Q 2794 2959 2544 3031 
Q 2294 3103 2034 3103 
Q 1644 3103 1451 2976 
Q 1259 2850 1259 2591 
Q 1259 2356 1403 2240 
Q 1547 2125 2119 2016 
L 2350 1972 
Q 2778 1891 2998 1647 
Q 3219 1403 3219 1013 
Q 3219 494 2850 201 
Q 2481 -91 1825 -91 
Q 1566 -91 1281 -36 
Q 997 19 666 128 
L 666 722 
Q 988 556 1281 473 
Q 1575 391 1838 391 
Q 2219 391 2428 545 
Q 2638 700 2638 978 
Q 2638 1378 1872 1531 
L 1847 1538 
L 1631 1581 
Q 1134 1678 906 1908 
Q 678 2138 678 2534 
Q 678 3038 1018 3311 
Q 1359 3584 1991 3584 
Q 2272 3584 2531 3532 
Q 2791 3481 3041 3378 
z
" transform="scale(0.015625)"/>
       <path id="DejaVuSansMono-74" d="M 1919 4494 
L 1919 3500 
L 3225 3500 
L 3225 3053 
L 1919 3053 
L 1919 1153 
Q 1919 766 2066 612 
Q 2213 459 2578 459 
L 3225 459 
L 3225 0 
L 2522 0 
Q 1875 0 1609 259 
Q 1344 519 1344 1153 
L 1344 3053 
L 409 3053 
L 409 3500 
L 1344 3500 
L 1344 4494 
L 1919 4494 
z
" transform="scale(0.015625)"/>
      </defs>
      <use xlink:href="#DejaVuSansMono-6c"/>
      <use xlink:href="#DejaVuSansMono-61" x="60.205078"/>
      <use xlink:href="#DejaVuSansMono-73" x="120.410156"/>
      <use xlink:href="#DejaVuSansMono-74" x="180.615234"/>
     </g>
    </g>
   </g>
   <g id="text_3">
    <g clip-path="url(#pd13a653558)">
     <!-- and -->
     <g transform="translate(294.459374 360.205483) scale(0.12 -0.12)">
      <defs>
       <path id="DejaVuSansMono-6e" d="M 3284 2169 
L 3284 0 
L 2706 0 
L 2706 2169 
Q 2706 2641 2540 2862 
Q 2375 3084 2022 3084 
Q 1619 3084 1401 2798 
Q 1184 2513 1184 1978 
L 1184 0 
L 609 0 
L 609 3500 
L 1184 3500 
L 1184 2975 
Q 1338 3275 1600 3429 
Q 1863 3584 2222 3584 
Q 2756 3584 3020 3232 
Q 3284 2881 3284 2169 
z
" transform="scale(0.015625)"/>
       <path id="DejaVuSansMono-64" d="M 2681 3053 
L 2681 4863 
L 3256 4863 
L 3256 0 
L 2681 0 
L 2681 441 
Q 2538 181 2298 45 
Q 2059 -91 1747 -91 
Q 1113 -91 748 401 
Q 384 894 384 1759 
Q 384 2613 750 3098 
Q 1116 3584 1747 3584 
Q 2063 3584 2303 3448 
Q 2544 3313 2681 3053 
z
M 991 1747 
Q 991 1078 1203 737 
Q 1416 397 1831 397 
Q 2247 397 2464 740 
Q 2681 1084 2681 1747 
Q 2681 2413 2464 2755 
Q 2247 3097 1831 3097 
Q 1416 3097 1203 2756 
Q 991 2416 991 1747 
z
" transform="scale(0.015625)"/>
      </defs>
      <use xlink:href="#DejaVuSansMono-61"/>
      <use xlink:href="#DejaVuSansMono-6e" x="60.205078"/>
      <use xlink:href="#DejaVuSansMono-64" x="120.410156"/>
     </g>
    </g>
   </g>
   <g id="text_4">
    <g clip-path="url(#pd13a653558)">
     <!-- be -->
     <g transform="translate(209.969093 133.379521) scale(0.12 -0.12)">
      <defs>
       <path id="DejaVuSansMono-62" d="M 2869 1747 
Q 2869 2416 2656 2756 
Q 2444 3097 2028 3097 
Q 1609 3097 1393 2755 
Q 1178 2413 1178 1747 
Q 1178 1084 1393 740 
Q 1609 397 2028 397 
Q 2444 397 2656 737 
Q 2869 1078 2869 1747 
z
M 1178 3053 
Q 1316 3309 1558 3446 
Q 1800 3584 2119 3584 
Q 2750 3584 3112 3098 
Q 3475 2613 3475 1759 
Q 3475 894 3111 401 
Q 2747 -91 2113 -91 
Q 1800 -91 1561 45 
Q 1322 181 1178 441 
L 1178 0 
L 603 0 
L 603 4863 
L 1178 4863 
L 1178 3053 
z
" transform="scale(0.015625)"/>
       <path id="DejaVuSansMono-65" d="M 3475 1894 
L 3475 1613 
L 984 1613 
L 984 1594 
Q 984 1022 1282 709 
Q 1581 397 2125 397 
Q 2400 397 2700 484 
Q 3000 572 3341 750 
L 3341 178 
Q 3013 44 2708 -23 
Q 2403 -91 2119 -91 
Q 1303 -91 843 398 
Q 384 888 384 1747 
Q 384 2584 834 3084 
Q 1284 3584 2034 3584 
Q 2703 3584 3089 3131 
Q 3475 2678 3475 1894 
z
M 2900 2063 
Q 2888 2569 2661 2833 
Q 2434 3097 2009 3097 
Q 1594 3097 1325 2822 
Q 1056 2547 1006 2059 
L 2900 2063 
z
" transform="scale(0.015625)"/>
      </defs>
      <use xlink:href="#DejaVuSansMono-62"/>
      <use xlink:href="#DejaVuSansMono-65" x="60.205078"/>
     </g>
    </g>
   </g>
   <g id="text_5">
    <g clip-path="url(#pd13a653558)">
     <!-- inspect -->
     <g transform="translate(373.305709 305.671957) scale(0.12 -0.12)">
      <defs>
       <path id="DejaVuSansMono-69" d="M 800 3500 
L 2272 3500 
L 2272 447 
L 3413 447 
L 3413 0 
L 556 0 
L 556 447 
L 1697 447 
L 1697 3053 
L 800 3053 
L 800 3500 
z
M 1697 4863 
L 2272 4863 
L 2272 4134 
L 1697 4134 
L 1697 4863 
z
" transform="scale(0.015625)"/>
       <path id="DejaVuSansMono-70" d="M 1172 441 
L 1172 -1331 
L 594 -1331 
L 594 3500 
L 1172 3500 
L 1172 3053 
Q 1316 3313 1555 3448 
Q 1794 3584 2106 3584 
Q 2741 3584 3102 3093 
Q 3463 2603 3463 1734 
Q 3463 881 3100 395 
Q 2738 -91 2106 -91 
Q 1788 -91 1548 45 
Q 1309 181 1172 441 
z
M 2859 1747 
Q 2859 2416 2648 2756 
Q 2438 3097 2022 3097 
Q 1603 3097 1387 2755 
Q 1172 2413 1172 1747 
Q 1172 1084 1387 740 
Q 1603 397 2022 397 
Q 2438 397 2648 737 
Q 2859 1078 2859 1747 
z
" transform="scale(0.015625)"/>
       <path id="DejaVuSansMono-63" d="M 3316 178 
Q 3084 44 2839 -23 
Q 2594 -91 2338 -91 
Q 1525 -91 1067 396 
Q 609 884 609 1747 
Q 609 2609 1067 3096 
Q 1525 3584 2338 3584 
Q 2591 3584 2831 3518 
Q 3072 3453 3316 3316 
L 3316 2713 
Q 3088 2916 2858 3006 
Q 2628 3097 2338 3097 
Q 1797 3097 1506 2747 
Q 1216 2397 1216 1747 
Q 1216 1100 1508 748 
Q 1800 397 2338 397 
Q 2638 397 2875 489 
Q 3113 581 3316 775 
L 3316 178 
z
" transform="scale(0.015625)"/>
      </defs>
      <use xlink:href="#DejaVuSansMono-69"/>
      <use xlink:href="#DejaVuSansMono-6e" x="60.205078"/>
      <use xlink:href="#DejaVuSansMono-73" x="120.410156"/>
      <use xlink:href="#DejaVuSansMono-70" x="180.615234"/>
      <use xlink:href="#DejaVuSansMono-65" x="240.820312"/>
      <use xlink:href="#DejaVuSansMono-63" x="301.025391"/>
      <use xlink:href="#DejaVuSansMono-74" x="361.230469"/>
     </g>
    </g>
   </g>
   <g id="text_6">
    <g clip-path="url(#pd13a653558)">
     <!-- crows -->
     <g transform="translate(441.188032 247.413322) scale(0.12 -0.12)">
      <defs>
       <path id="DejaVuSansMono-72" d="M 3609 2778 
Q 3425 2922 3234 2987 
Q 3044 3053 2816 3053 
Q 2278 3053 1993 2715 
Q 1709 2378 1709 1741 
L 1709 0 
L 1131 0 
L 1131 3500 
L 1709 3500 
L 1709 2816 
Q 1853 3188 2151 3386 
Q 2450 3584 2859 3584 
Q 3072 3584 3256 3531 
Q 3441 3478 3609 3366 
L 3609 2778 
z
" transform="scale(0.015625)"/>
       <path id="DejaVuSansMono-6f" d="M 1925 3097 
Q 1488 3097 1263 2756 
Q 1038 2416 1038 1747 
Q 1038 1081 1263 739 
Q 1488 397 1925 397 
Q 2366 397 2591 739 
Q 2816 1081 2816 1747 
Q 2816 2416 2591 2756 
Q 2366 3097 1925 3097 
z
M 1925 3584 
Q 2653 3584 3039 3112 
Q 3425 2641 3425 1747 
Q 3425 850 3040 379 
Q 2656 -91 1925 -91 
Q 1197 -91 812 379 
Q 428 850 428 1747 
Q 428 2641 812 3112 
Q 1197 3584 1925 3584 
z
" transform="scale(0.015625)"/>
       <path id="DejaVuSansMono-77" d="M 0 3500 
L 569 3500 
L 1178 672 
L 1678 2478 
L 2169 2478 
L 2675 672 
L 3284 3500 
L 3853 3500 
L 3034 0 
L 2484 0 
L 1925 1919 
L 1369 0 
L 819 0 
L 0 3500 
z
" transform="scale(0.015625)"/>
      </defs>
      <use xlink:href="#DejaVuSansMono-63"/>
      <use xlink:href="#DejaVuSansMono-72" x="60.205078"/>
      <use xlink:href="#DejaVuSansMono-6f" x="120.410156"/>
      <use xlink:href="#DejaVuSansMono-77" x="180.615234"/>
      <use xlink:href="#DejaVuSansMono-73" x="240.820312"/>
     </g>
    </g>
   </g>
   <g id="text_7">
    <g clip-path="url(#pd13a653558)">
     <!-- - -->
     <g transform="translate(98.821818 297.091928) scale(0.12 -0.12)">
      <defs>
       <path id="DejaVuSansMono-2d" d="M 1113 2009 
L 2741 2009 
L 2741 1497 
L 1113 1497 
L 1113 2009 
z
" transform="scale(0.015625)"/>
      </defs>
      <use xlink:href="#DejaVuSansMono-2d"/>
     </g>
    </g>
   </g>
   <g id="text_8">
    <g clip-path="url(#pd13a653558)">
     <!-- dower -->
     <g transform="translate(147.516235 198.171674) scale(0.12 -0.12)">
      <use xlink:href="#DejaVuSansMono-64"/>
      <use xlink:href="#DejaVuSansMono-6f" x="60.205078"/>
      <use xlink:href="#DejaVuSansMono-77" x="120.410156"/>
      <use xlink:href="#DejaVuSansMono-65" x="180.615234"/>
      <use xlink:href="#DejaVuSansMono-72" x="240.820312"/>
     </g>
    </g>
   </g>
   <g id="text_9">
    <g clip-path="url(#pd13a653558)">
     <!-- – -->
     <g transform="translate(316.879113 280.591218) scale(0.12 -0.12)">
      <defs>
       <path id="DejaVuSansMono-2013" d="M 0 1978 
L 3853 1978 
L 3853 1538 
L 0 1538 
L 0 1978 
z
" transform="scale(0.015625)"/>
      </defs>
      <use xlink:href="#DejaVuSansMono-2013"/>
     </g>
    </g>
   </g>
   <g id="text_10">
    <g clip-path="url(#pd13a653558)">
     <!-- bell -->
     <g transform="translate(461.661729 210.611115) scale(0.12 -0.12)">
      <use xlink:href="#DejaVuSansMono-62"/>
      <use xlink:href="#DejaVuSansMono-65" x="60.205078"/>
      <use xlink:href="#DejaVuSansMono-6c" x="120.410156"/>
      <use xlink:href="#DejaVuSansMono-6c" x="180.615234"/>
     </g>
    </g>
   </g>
   <g id="text_11">
    <g clip-path="url(#pd13a653558)">
     <!-- the -->
     <g transform="translate(153.954261 85.296392) scale(0.12 -0.12)">
      <defs>
       <path id="DejaVuSansMono-68" d="M 3284 2169 
L 3284 0 
L 2706 0 
L 2706 2169 
Q 2706 2641 2540 2862 
Q 2375 3084 2022 3084 
Q 1619 3084 1401 2798 
Q 1184 2513 1184 1978 
L 1184 0 
L 609 0 
L 609 4863 
L 1184 4863 
L 1184 2975 
Q 1338 3275 1600 3429 
Q 1863 3584 2222 3584 
Q 2756 3584 3020 3232 
Q 3284 2881 3284 2169 
z
" transform="scale(0.015625)"/>
      </defs>
      <use xlink:href="#DejaVuSansMono-74"/>
      <use xlink:href="#DejaVuSansMono-68" x="60.205078"/>
      <use xlink:href="#DejaVuSansMono-65" x="120.410156"/>
     </g>
    </g>
   </g>
   <g id="text_12">
    <g clip-path="url(#pd13a653558)">
     <!-- ” -->
     <g transform="translate(284.761188 221.092051) scale(0.12 -0.12)">
      <defs>
       <path id="DejaVuSansMono-201d" d="M 2400 4863 
L 3188 4863 
L 3188 4219 
L 2572 3022 
L 2094 3022 
L 2400 4219 
L 2400 4863 
z
M 966 4863 
L 1753 4863 
L 1753 4219 
L 1141 3022 
L 659 3022 
L 966 4219 
L 966 4863 
z
" transform="scale(0.015625)"/>
      </defs>
      <use xlink:href="#DejaVuSansMono-201d"/>
     </g>
    </g>
   </g>
   <g id="text_13">
    <g clip-path="url(#pd13a653558)">
     <!-- onset -->
     <g transform="translate(178.4342 239.055711) scale(0.12 -0.12)">
      <use xlink:href="#DejaVuSansMono-6f"/>
      <use xlink:href="#DejaVuSansMono-6e" x="60.205078"/>
      <use xlink:href="#DejaVuSansMono-73" x="120.410156"/>
      <use xlink:href="#DejaVuSansMono-65" x="180.615234"/>
      <use xlink:href="#DejaVuSansMono-74" x="240.820312"/>
     </g>
    </g>
   </g>
  </g>
 </g>
 <defs>
  <clipPath id="pd13a653558">
   <rect x="72" y="51.84" width="446.4" height="332.64"/>
  </clipPath>
 </defs>
</svg>
